<?xml version="1.0" standalone="no"?>
<!DOCTYPE svg PUBLIC "-//W3C//DTD SVG 20010904//EN"
 "http://www.w3.org/TR/2001/REC-SVG-20010904/DTD/svg10.dtd">
<svg version="1.0" xmlns="http://www.w3.org/2000/svg"
 width="512.000000pt" height="512.000000pt" viewBox="0 0 512.000000 512.000000"
 preserveAspectRatio="xMidYMid meet">
<metadata>
Created by FortisLedger
</metadata>
<g transform="translate(0.000000,512.000000) scale(0.100000,-0.100000)"
fill="#0ea5e9" stroke="none">
<path d="M2380 4604 c-19 -2 -78 -9 -130 -15 -311 -37 -645 -142 -925 -289
-85 -45 -205 -118 -205 -125 0 -3 -15 -14 -32 -25 -18 -11 -67 -49 -108 -85
-41 -36 -77 -65 -80 -65 -3 0 -25 -20 -50 -45 -25 -25 -45 -42 -45 -38 0 4
-13 -8 -30 -27 -16 -19 -30 -32 -30 -28 0 3 -18 -12 -40 -34 -22 -22 -40 -36
-40 -31 0 4 -7 -2 -15 -14 -8 -12 -15 -19 -15 -16 0 4 -27 -18 -60 -47 -33
-30 -60 -52 -60 -49 0 3 -16 -10 -35 -29 -19 -19 -35 -31 -35 -27 0 4 -9 -2
-20 -14 -11 -12 -20 -18 -20 -14 0 4 -20 -11 -45 -34 -25 -23 -45 -39 -45
-36 0 3 -16 -9 -35 -27 -19 -18 -35 -30 -35 -26 0 3 -11 -4 -25 -17 -14 -13
-25 -20 -25 -16 0 4 -18 -9 -40 -29 -22 -20 -40 -33 -40 -29 0 4 -9 -2 -20
-14 -11 -12 -20 -18 -20 -14 0 4 -20 -11 -45 -34 -25 -23 -45 -39 -45 -36 0
3 -16 -9 -35 -27 -19 -18 -35 -30 -35 -26 0 3 -11 -4 -25 -17 -14 -13 -25
-20 -25 -16 0 4 -18 -9 -40 -29 -22 -20 -40 -33 -40 -29 0 4 -9 -2 -20 -14
-11 -12 -20 -18 -20 -14 0 4 -20 -11 -45 -34 -25 -23 -45 -39 -45 -36 0 3
-16 -9 -35 -27 -19 -18 -35 -30 -35 -26 0 3 -11 -4 -25 -17 -14 -13 -25 -20
-25 -16 0 4 -18 -9 -40 -29 -22 -20 -40 -33 -40 -29 0 4 -9 -2 -20 -14 -11
-12 -20 -18 -20 -14 0 4 -20 -11 -45 -34 -25 -23 -45 -39 -45 -36 0 3 -16 -9
-35 -27 -19 -18 -35 -30 -35 -26 0 3 -11 -4 -25 -17 -14 -13 -25 -20 -25 -16
0 4 -18 -9 -40 -29 -22 -20 -40 -33 -40 -29 0 4 -9 -2 -20 -14 -11 -12 -20
-18 -20 -14 0 4 -20 -11 -45 -34 -25 -23 -45 -39 -45 -36 0 3 -16 -9 -35 -27
-19 -18 -35 -30 -35 -26 0 3 -11 -4 -25 -17 -14 -13 -25 -20 -25 -16 0 4 -18
-9 -40 -29 -22 -20 -40 -33 -40 -29 0 4 -9 -2 -20 -14 -11 -12 -20 -18 -20
-14 0 4 -20 -11 -45 -34 -25 -23 -45 -39 -45 -36 0 3 -16 -9 -35 -27 -19 -18
-35 -30 -35 -26 0 3 -11 -4 -25 -17 -14 -13 -25 -20 -25 -16 0 4 -18 -9 -40
-29 -22 -20 -40 -33 -40 -29 0 4 -9 -2 -20 -14 -11 -12 -20 -18 -20 -14 0 4
-20 -11 -45 -34 -25 -23 -45 -39 -45 -36 0 3 -16 -9 -35 -27 -19 -18 -35 -30
-35 -26 0 3 -11 -4 -25 -17 -14 -13 -25 -20 -25 -16 0 4 -18 -9 -40 -29 -22
-20 -40 -33 -40 -29 0 4 -9 -2 -20 -14 -11 -12 -20 -18 -20 -14 0 4 -20 -11
-45 -34 -25 -23 -45 -39 -45 -36 0 3 -16 -9 -35 -27 -19 -18 -35 -30 -35 -26
0 3 -11 -4 -25 -17 -14 -13 -25 -20 -25 -16 0 4 -18 -9 -40 -29 -22 -20 -40
-33 -40 -29 0 4 -9 -2 -20 -14 -11 -12 -20 -18 -20 -14 0 4 -20 -11 -45 -34
-25 -23 -45 -39 -45 -36 0 3 -16 -9 -35 -27 -19 -18 -35 -30 -35 -26 0 3 -11
-4 -25 -17 -14 -13 -25 -20 -25 -16 0 4 -18 -9 -40 -29 -22 -20 -40 -33 -40
-29z"/>
</g>
</svg>
